<?xml version="1.0" encoding="UTF-8" standalone="no"?>
<!DOCTYPE svg PUBLIC "-//W3C//DTD SVG 1.1//EN" "http://www.w3.org/Graphics/SVG/1.1/DTD/svg11.dtd">
<svg width="100%" height="100%" viewBox="0 0 51 52" version="1.1" xmlns="http://www.w3.org/2000/svg" xmlns:xlink="http://www.w3.org/1999/xlink" xml:space="preserve" style="fill-rule:evenodd;clip-rule:evenodd;stroke-miterlimit:10;">
    <g transform="matrix(1.18678,0,0,1.18678,-4.59576,-4.24466)">
        <g id="g1426">
            <ellipse id="use15862" cx="25.267" cy="25.502" rx="20.702" ry="20.938" style="fill:none;"/>
            <clipPath id="_clip1">
                <ellipse id="use158621" cx="25.267" cy="25.502" rx="20.702" ry="20.938"/>
            </clipPath>
            <g clip-path="url(#_clip1)">
                <g id="g1438" transform="matrix(1.19874,0,0,1.17821,-3.82481,-2.91807)">
                    <path id="path1440" d="M23.228,17.543C22.557,17.913 21.365,17.488 20.407,17.625C20.57,17.218 21.092,17.714 21.131,17.218C21.85,17.219 22.63,16.776 23.228,17.543Z"/>
                    <path id="path1442" d="M20.046,17.543C20.035,17.776 19.744,17.692 19.539,17.706C19.39,17.608 19.912,17.587 20.046,17.543Z"/>
                    <path id="path1444" d="M29.809,18.113C29.577,18.203 29.44,18.402 29.086,18.358C29.124,18.292 29.162,18.225 29.159,18.113C28.433,18.389 28.333,18.189 27.568,18.194C27.668,18.035 27.827,17.944 27.857,17.706C28.121,18.026 28.631,17.591 29.085,17.625C29.24,17.886 29.535,17.987 29.809,18.113L29.809,18.113Z"/>
                    <path id="path1446" d="M22.649,17.95C22.733,18.017 22.843,18.056 23.011,18.032C23.023,18.164 22.538,18.196 22.649,17.95Z"/>
                    <path id="path1448" d="M33.787,18.357C34.03,18.382 33.99,18.726 34.003,19.009C33.861,18.871 33.81,18.629 33.787,18.357Z"/>
                    <path id="path1450" d="M29.954,18.601C29.795,18.85 29.49,18.507 29.954,18.601Z"/>
                    <path id="path1452" d="M23.444,20.149C22.758,20.269 21.953,19.859 21.203,19.904C20.851,19.926 20.131,20.296 19.611,20.311C19.878,19.991 20.881,19.571 21.564,19.496C22.082,19.442 23.211,19.701 23.444,20.149L23.444,20.149Z"/>
                    <path id="path1454" d="M31.184,21.208C30.943,21.42 30.564,21.094 30.46,20.883C29.502,20.636 28.327,20.462 27.278,20.558C27.352,20.207 27.319,20.243 27.205,19.987C28.637,19.907 30.098,20.443 31.184,21.208Z"/>
                    <path id="path1456" d="M22.867,20.719C22.874,20.972 22.649,20.963 22.433,20.965C22.474,20.768 22.706,20.783 22.867,20.719Z"/>
                    <path id="path1458" d="M21.926,20.883C21.767,21.132 21.463,20.789 21.926,20.883Z"/>
                    <path id="path1460" d="M28.507,21.372C28.459,21.481 28.353,21.523 28.218,21.534C28.146,21.289 28.38,21.39 28.507,21.372Z"/>
                    <path id="path1462" d="M20.696,22.186C20.538,22.436 20.234,22.093 20.696,22.186Z"/>
                    <path id="path1464" d="M23.155,22.349C22.464,22.59 22.19,22.255 23.155,22.349Z"/>
                    <path id="path1466" d="M28.942,23.165C29.056,22.962 29.448,23.132 29.593,23.165C29.442,23.407 29.211,23.055 28.942,23.165Z"/>
                    <path id="path1468" d="M27.857,24.224C27.89,24.379 27.634,24.574 27.928,24.549C27.569,24.98 26.848,24.425 26.121,24.467C25.691,24.491 25.398,24.739 25.036,24.631C24.815,24.565 24.637,24.245 24.457,24.224C23.863,24.048 23.018,24.654 22.866,23.979C23.043,24.196 22.847,23.871 23.011,23.816C23.064,23.797 23.395,24.15 23.372,23.571C23.993,23.236 24.582,23.665 24.891,24.141C25.273,24.347 25.274,24.075 25.542,24.305C25.905,24.256 26.18,23.776 26.554,23.734C27.056,23.677 27.413,24.041 27.857,24.224L27.857,24.224Z"/>
                    <path id="path1470" d="M22.721,26.505C22.796,26.584 22.867,26.666 22.938,26.75C22.888,27.123 22.162,27.481 22.215,26.831C22.446,26.792 22.656,26.73 22.721,26.505Z"/>
                    <path id="path1472" d="M24.457,26.585C24.269,26.651 23.511,26.832 23.517,26.585C23.76,26.47 24.216,26.47 24.457,26.585Z"/>
                    <path id="path1474" d="M23.011,26.749C23.434,26.47 23.521,26.946 23.011,26.749Z"/>
                    <path id="path1476" d="M25.253,26.667C25.094,26.917 24.79,26.573 25.253,26.667Z"/>
                    <path id="path1478" d="M26.482,26.749C26.336,26.936 25.883,26.778 25.615,26.83C25.852,26.605 26.147,26.708 26.482,26.749Z"/>
                    <path id="path1480" d="M27.134,26.667C27.354,26.745 27.425,26.99 27.785,26.912C27.804,27.244 28.074,27.292 28.292,27.4C28.021,27.6 27.853,27.607 27.569,27.319C27.508,27.258 27.446,27.07 27.351,26.993C27.253,26.915 27.029,27.046 27.134,26.667L27.134,26.667Z"/>
                    <path id="path1482" d="M17.298,37.828C17.303,37.7 17.263,37.518 17.37,37.503C17.363,37.632 17.405,37.815 17.298,37.828Z"/>
                    <path id="path1484" d="M10.355,38.073C10.181,38.107 10.197,37.925 9.993,37.992C9.988,37.762 10.365,37.841 10.355,38.073Z"/>
                    <path id="path1486" d="M9.921,38.073C9.993,38.073 10.066,38.073 10.138,38.073C10.075,38.194 10.03,38.332 9.849,38.318C9.887,38.252 9.924,38.186 9.921,38.073Z"/>
                    <path id="path1488" d="M21.709,38.889C21.932,38.874 22.034,39.174 21.926,39.296C21.858,39.155 21.66,39.163 21.709,38.889Z"/>
                    <path id="path1490" d="M7.751,39.296C8.065,39.534 7.3,39.766 7.028,39.865C7.184,39.58 7.583,39.568 7.751,39.296Z"/>
                    <path id="path1492" d="M23.589,39.458C23.662,39.458 23.734,39.458 23.806,39.458C23.863,39.611 23.927,39.756 23.951,39.947C23.833,39.782 23.621,39.722 23.589,39.458Z"/>
                    <rect id="path1494" x="23.3" y="39.54" width="0.217" height="0.164"/>
                    <path id="path1496" d="M22.721,39.704C22.722,39.579 23.258,39.524 23.155,39.785C22.978,39.795 22.808,39.797 22.721,39.704Z"/>
                    <path id="path1498" d="M30.533,40.926C30.362,41.187 30.241,40.639 30.533,40.926Z"/>
                    <path id="path1556" d="M10.499,59.664C10.684,56.222 11.187,52.553 11.295,49.318C11.319,48.577 11.11,47.733 11.222,47.036C11.287,46.634 11.523,46.203 11.656,45.813C11.869,45.191 12.164,44.675 12.235,44.021C12.567,43.673 12.603,43.132 12.741,42.798C12.859,42.515 13.021,42.444 13.103,42.229C13.234,41.884 13.195,41.378 13.537,41.333C13.398,40.299 14.39,39.969 14.332,39.133C14.771,38.989 14.525,38.38 15.056,38.236C15.14,37.733 15.47,37.509 15.563,37.014C15.158,36.942 15.293,37.098 15.201,37.259C15.041,37.035 14.873,36.557 15.201,36.444C14.941,36.395 14.988,36.693 14.767,36.689C14.812,36.613 14.936,36.389 14.695,36.444C14.515,36.589 14.617,36.548 14.622,36.851C14.286,36.707 14.358,37.4 14.043,37.177C14.092,37.177 14.139,37.177 14.188,37.177C14.043,36.829 13.786,37.677 13.537,37.747C12.85,37.924 12.362,38.325 11.946,38.807C11.478,38.739 11.047,38.463 11.078,38.073C11.049,38.262 10.975,38.001 10.933,37.992C10.726,37.943 10.473,38.154 10.355,37.747C11.421,37.265 12.514,36.611 13.682,36.198C14.067,36.063 14.522,36.141 14.838,35.791C13.792,35.943 12.732,36.515 11.873,36.606C11.755,36.48 11.843,36.227 11.946,36.117C12.181,35.942 12.081,36.128 12.163,36.199C12.57,35.735 13.228,35.747 13.898,35.548C14.779,35.287 16.015,35.221 16.502,34.895C15.712,34.02 15.077,32.97 15.055,31.23C14.784,31.148 14.59,31.567 14.477,31.394C14.58,31.075 14.971,31.081 14.911,30.578C14.622,30.312 14.532,30.815 14.188,30.741C14.311,30.303 13.938,30.424 13.681,30.415C13.812,29.992 14.333,30.01 14.404,29.519C14.062,29.783 13.581,29.831 13.247,29.519C13.648,29.13 14.33,29.055 14.622,28.542C14.144,28.683 13.682,29.274 13.247,29.194C13.595,28.853 14.022,28.6 14.404,28.298C14.069,28.081 13.661,28.854 13.392,28.705C13.344,28.244 13.781,28.328 13.898,28.054C13.637,27.271 14.382,26.357 14.477,25.447C14.494,25.591 14.404,25.854 14.622,25.772C14.704,25.674 14.828,25.624 14.766,25.365C15.067,25.581 15.22,25.038 15.2,24.632C14.904,24.551 14.737,24.833 14.549,24.632C14.647,24.888 14.572,24.911 14.332,24.957C14.424,24.71 14.389,24.64 14.26,24.468C14.672,24.428 14.392,24.057 14.549,23.817C14.266,23.524 13.865,23.872 13.754,23.409C13.886,23.287 14.111,23.269 14.26,23.165C13.809,22.795 14.371,21.736 14.984,21.779C14.969,21.242 15.4,20.819 15.49,20.312C15.546,20.007 15.454,19.691 15.49,19.335C15.615,18.11 16.092,16.819 16.575,15.588C17.032,14.424 17.418,13.12 18.022,12.247C19.013,10.818 20.446,9.987 21.928,9.233C22.716,8.831 23.435,8.452 24.243,8.174C24.386,8.123 24.529,8.206 24.677,8.174C25.199,8.053 25.588,7.718 26.124,7.685C27.791,7.579 29.758,8.561 30.246,9.559C30.428,9.932 30.436,10.298 30.535,10.699C30.588,10.786 30.753,10.709 30.897,10.863C31.135,11.115 31.244,11.51 31.475,11.84C31.675,12.125 32.161,12.351 32.054,12.736C32.162,12.75 32.321,12.707 32.343,12.817C32.181,13.026 32.792,13.263 32.56,13.551C32.758,13.559 32.705,13.416 32.849,13.551C32.826,13.741 32.861,13.864 32.921,13.958C33.481,14.336 33.987,15.745 33.861,16.892C33.972,16.826 34.218,17.734 34.078,17.951C33.603,17.79 34.008,17.1 33.644,16.892C33.492,17.383 33.925,17.805 33.499,18.195C33.503,17.646 33.046,17.766 33.21,17.3C33.068,17.276 33.067,17.409 32.993,17.463C32.591,16.414 31.975,15.843 31.474,15.426C31.278,15.262 31.163,15.01 30.896,14.937C30.976,15.363 31.489,15.3 31.474,15.833C31.724,15.816 31.815,15.718 31.981,15.915C31.789,15.916 31.554,15.87 31.547,16.078C31.792,16.047 31.856,16.22 31.981,16.323C31.791,16.589 32.205,16.303 31.981,16.648C32.321,17.052 32.642,17.479 32.849,18.034C33.629,18.79 34.019,20.095 34.151,21.618C34.179,21.948 34.09,22.355 34.151,22.677C34.283,23.36 34.885,23.901 35.163,24.307C35.191,24.621 35.185,24.981 35.38,25.284C35.307,25.448 35.06,25.413 35.091,25.691C35.217,26.121 35.302,26.594 35.452,26.995C35.008,27.31 34.877,27.977 34.513,28.38C34.513,28.19 34.513,27.999 34.513,27.809C34.241,27.83 34.348,28.277 34.005,28.216C34.193,27.774 33.955,27.357 33.426,27.321C33.445,28.264 32.749,28.404 32.848,29.438C33.082,29.545 33.313,29.612 33.499,29.602C33.954,29.576 34.196,29.102 34.583,29.031C34.595,28.764 34.261,28.672 34.439,28.462C34.848,28.763 35.345,29.394 35.451,29.765C35.107,29.665 34.961,29.34 34.656,29.195C34.531,30.184 35.44,30.696 35.668,31.557C34.927,31.388 34.496,30.869 33.788,30.662C33.793,31.384 33.87,31.643 33.933,32.128C34.063,32.362 34.418,32.342 34.512,32.618C34.477,32.904 34.197,32.916 34.004,33.025C34.043,33.252 34.11,33.448 34.149,33.676C34.012,33.829 33.968,33.685 33.788,33.676C33.768,34.417 33.203,35.468 32.848,35.061C32.795,35.408 32.336,35.299 32.341,35.712C33.03,36.225 34.013,35.901 34.872,36.201C34.871,36.363 34.675,36.305 34.728,36.526C35.231,36.612 35.373,37.104 35.74,37.342C35.291,37.286 34.836,37.005 34.366,36.853C33.816,36.676 33.243,36.428 32.991,36.608C34.012,36.845 34.786,37.356 35.739,37.667C35.875,37.868 35.886,38.209 36.173,38.237C36.352,38.613 36.115,38.583 36.317,38.808C36.194,38.862 35.544,39.055 35.883,38.89C35.965,38.633 35.616,39.071 35.376,38.971C35.347,38.693 35.181,38.868 35.305,38.564C34.794,38.766 34.292,38.218 33.641,38.564C34.051,39.147 34.414,39.605 34.653,40.031C34.665,39.935 34.64,39.799 34.726,39.786C34.74,40.107 34.803,40.266 35.086,40.438C35.346,40.431 35.336,40.123 35.52,40.031C35.903,40.21 36.447,40.596 36.895,40.438C36.772,41.01 37.283,40.869 37.401,41.171C37.021,41.322 36.741,40.925 36.75,40.927C36.744,40.926 36.665,41.098 36.606,41.09C36.442,41.065 36.542,40.895 36.317,41.09C36.151,40.628 35.783,41.288 35.594,40.764C35.444,40.867 35.219,40.887 35.086,41.009C35.016,40.871 34.887,40.8 34.652,40.846C34.675,40.735 34.755,40.69 34.725,40.521C34.267,40.541 33.97,39.874 33.64,39.379C33.116,38.594 32.733,37.828 32.193,37.18C31.949,36.889 31.629,36.441 31.253,36.446C33.127,38.299 33.611,41.72 35.304,43.779C35.073,44.078 35.604,44.014 35.375,44.349C36.017,45.419 36.668,46.479 37.184,47.689C37.243,47.723 37.436,47.438 37.545,47.608C37.589,47.82 37.516,47.901 37.328,47.852C37.243,48.197 37.729,48.319 37.545,48.505C37.407,48.47 37.363,48.33 37.184,48.342C37.275,48.776 37.42,49.092 37.256,49.564C37.165,48.797 37.103,47.997 36.677,47.609C36.989,49.458 37.147,51.343 37.328,53.23C37.38,53.774 37.287,54.404 37.545,54.86C37.631,54.626 37.696,54.427 37.617,54.208C37.928,54.049 37.635,53.522 38.051,53.312C38.06,52.903 38.251,52.503 38.34,52.253C38.363,52.185 38.472,52.202 38.484,52.172C38.598,51.884 38.545,51.502 38.773,51.357C38.899,52.303 38.259,52.882 38.266,53.801C38.091,53.956 38.108,54.329 37.905,54.452C38.014,55.267 37.677,55.403 37.761,56.49C37.661,56.493 37.601,56.451 37.544,56.408C37.832,57.451 37.755,58.365 37.761,59.667C28.677,59.664 19.587,59.664 10.499,59.664L10.499,59.664ZM15.417,36.933C15.816,37.191 15.684,36.646 15.417,36.933ZM27.279,12.002C27.784,12.077 28.163,12.219 28.507,12.166C28.005,11.997 27.758,11.543 27.279,11.351C27.074,11.284 27.091,11.465 26.917,11.432C26.846,11.241 26.556,11.297 26.556,11.025C26.25,11.106 25.442,11.244 25.254,10.944C25.067,11.278 24.574,10.91 24.313,11.432C24.646,11.536 24.665,11.284 24.82,11.187C24.742,11.572 25.069,11.42 25.109,11.269C25.118,11.351 25.128,11.488 25.181,11.513C25.72,11.769 26.741,11.73 27.279,11.759L27.279,12.002ZM30.533,39.133C30.721,38.27 30.823,36.863 31.04,36.117C31.031,35.279 31.033,34.282 31.112,33.43C31.197,32.5 31.527,32.196 31.835,31.475C32.117,30.816 32.269,30.036 32.487,29.437C32.519,29.347 32.665,29.304 32.703,29.193C32.777,28.983 32.627,28.643 32.92,28.541C32.923,26.363 33.875,23.791 32.559,21.86C32.521,21.363 32.672,20.973 32.559,20.801C32.114,21.278 32.172,22.322 31.546,22.594C31.943,21.88 32.339,20.553 31.98,19.498C31.488,19.075 30.774,18.902 30.099,18.683C30.474,18.607 31.076,18.927 31.619,18.928C31.856,19.044 32.204,19.46 32.487,19.254C32.317,19.227 32.175,19.17 32.125,19.009C32.316,19.033 32.363,18.896 32.342,18.683C32.323,18.515 32.073,18.606 32.053,18.439C32.017,17.852 31.839,17.617 31.619,17.217C31.265,16.571 30.919,15.83 30.244,15.587C29.604,15.355 29.368,15.048 28.87,14.772C28.263,14.435 27.596,14.28 26.99,14.038C26.715,13.929 26.529,13.769 26.266,13.712C25.126,13.466 24.208,13.712 23.301,13.794C21.838,13.926 20.378,14.162 19.469,15.18C19.554,15.193 19.674,15.166 19.685,15.261C19.559,15.255 19.461,15.28 19.396,15.343C19.375,15.503 19.493,15.505 19.541,15.588C19.414,15.594 19.316,15.568 19.251,15.506C19.231,15.667 19.349,15.668 19.396,15.751C19.128,16.183 19.374,17.191 18.817,17.299C18.816,17.801 18.809,17.792 18.601,18.033C19.214,17.962 20.298,17.869 21.205,17.869C21.672,17.869 22.214,17.74 22.507,18.033C21.571,17.95 20.408,17.818 19.759,18.195C18.72,18.8 19.288,21.187 19.759,21.942C19.047,21.441 18.926,20.273 18.674,19.255C18.617,19.236 18.531,19.252 18.529,19.173C18.118,19.226 17.996,19.604 17.661,19.743C17.656,20.177 17.95,20.452 18.168,20.395C18.103,20.574 18.164,20.728 17.951,20.884C18.11,20.936 18.181,20.653 18.168,20.966C18.079,21.213 17.891,20.847 17.807,21.047C17.779,21.186 17.914,21.256 17.807,21.292C17.524,21.022 17.534,21.826 17.228,21.374C17.247,21.694 16.966,21.676 17.012,22.025C17.013,22.16 17.212,22.072 17.228,22.189C17.256,22.384 16.899,22.143 17.012,22.433C17.218,22.606 16.986,22.842 17.301,22.84C17.312,23.072 17.083,23.031 17.083,23.247C17.207,23.251 17.209,23.281 17.228,23.411C17.299,23.899 17.099,24.344 17.083,24.796C17.08,24.913 17.215,24.997 17.228,25.122C17.321,25.996 17.074,27.388 17.517,27.729C17.528,28.1 17.576,28.049 17.517,28.381C17.777,28.712 18.071,29.007 18.024,29.685C18.458,29.976 18.942,30.437 19.252,30.825C19.289,30.871 19.165,30.952 19.181,30.988C19.654,30.959 19.841,31.439 20.049,31.558C20.146,31.616 20.326,31.508 20.409,31.558C20.514,31.621 20.524,31.823 20.627,31.884C20.761,31.965 21.01,31.883 21.206,31.965C21.436,32.063 21.551,32.264 21.712,32.291C21.851,32.315 22.001,32.179 22.146,32.21C22.162,32.213 22.075,32.373 22.074,32.373C22.152,32.404 22.352,32.266 22.508,32.291C22.513,32.292 22.557,32.431 22.652,32.454C22.982,32.537 23.406,32.54 23.665,32.536C24.818,32.518 26.4,32.934 26.629,32.618C27.133,32.903 27.747,32.372 28.293,32.454C28.309,32.518 28.295,32.616 28.365,32.618C28.394,32.407 28.59,32.383 28.726,32.292C28.733,32.421 28.716,32.575 28.871,32.537C29.006,32.276 28.971,32.331 29.305,32.292C29.37,31.578 30.288,31.908 30.608,31.885C30.655,32.133 31.219,32.379 30.824,32.619C30.739,32.406 31.047,32.269 30.752,32.293C30.715,32.827 30.922,32.822 30.897,33.189C30.532,33.205 30.878,33.894 30.463,34.004C30.561,34.084 30.557,34.28 30.679,34.33C30.58,34.333 30.521,34.291 30.463,34.249C30.48,34.685 30.242,34.654 30.39,35.064C30.291,35.06 30.232,35.102 30.174,35.146C30.383,35.576 29.923,35.442 30.101,35.879C29.68,36.353 29.096,36.647 28.799,37.264C28.714,37.17 28.544,37.172 28.365,37.183C28.211,37.532 28.014,37.665 27.931,37.916C27.783,37.894 27.914,37.555 27.715,37.591C27.693,37.91 27.59,38.149 27.498,38.568C27.791,38.685 27.744,38.759 27.787,39.056C27.691,39.056 27.594,39.056 27.498,39.056C27.389,40.184 26.145,40.031 25.256,40.278C25.259,40.139 25.199,40.07 25.111,40.034C24.951,40.152 25.202,40.234 25.039,40.278C25.023,40.216 24.978,40.184 24.894,40.197C24.895,40.09 25.021,40.123 25.039,40.034C24.914,40.039 24.853,39.972 24.822,39.87C24.626,39.894 24.481,39.975 24.388,40.116C24.371,39.961 24.469,39.937 24.46,39.79C24.29,39.591 24.326,39.912 24.099,39.871C24.115,39.718 24.017,39.692 24.026,39.546C24.264,39.679 24.382,39.617 24.46,39.383C24.447,39.561 24.519,39.642 24.677,39.628C24.531,39.219 25.006,39.509 25.038,39.303C24.942,39.221 24.769,39.225 24.749,39.057C25.033,39.186 24.899,38.847 25.038,38.813C25.046,38.912 25.059,39.005 25.182,38.976C25.009,38.634 25.279,38.831 25.399,38.65C25.308,38.617 25.251,38.545 25.255,38.406C25.407,38.206 25.575,38.478 25.689,38.324C25.801,37.981 25.288,38.342 25.4,37.999C25.67,37.86 25.515,38.047 25.761,38.08C25.658,37.604 26.007,38.145 25.978,37.755C25.844,37.635 25.556,37.688 25.544,37.429C25.461,37.507 25.067,37.642 25.037,37.511C25.093,37.492 25.18,37.509 25.181,37.429C24.604,37.37 23.94,37.076 23.445,37.185C23.388,36.934 23.3,36.923 23.085,37.021C22.948,36.632 22.408,36.707 22,36.451C21.863,36.46 21.95,36.72 21.783,36.696C21.764,36.418 21.478,36.442 21.276,36.37C21.163,36.431 21.169,36.628 20.987,36.615C20.137,36.38 19.75,35.619 18.963,35.31C18.896,34.771 18.574,35.059 18.384,34.985C18.36,34.976 18.463,34.829 18.456,34.822C18.276,34.667 17.951,34.925 17.878,34.903C17.776,34.874 17.788,34.465 17.588,34.659C17.66,35.113 17.315,35.328 17.588,35.555C16.733,36.448 17.637,38.351 17.3,39.14C17.697,40.625 18.43,41.525 19.396,42.48C19.972,43.05 20.549,43.388 21.276,43.784C22.257,44.317 23.599,44.663 24.82,44.844C27.672,45.263 29.492,44.325 31.112,42.644C31.178,41.993 30.978,41.1 30.823,40.444C30.615,40.454 30.786,40.89 30.534,40.851C30.529,40.709 30.551,40.598 30.607,40.526C30.349,40.398 30.562,40.802 30.389,40.77C30.335,40.131 30.455,39.488 30.533,39.133L30.533,39.133ZM33.714,16.728C33.719,16.678 33.726,16.631 33.787,16.646C33.779,16.546 33.766,16.453 33.643,16.483C33.654,16.578 33.63,16.715 33.714,16.728ZM32.991,19.416C33.042,19.213 32.682,19.071 32.63,19.253C32.853,19.193 32.769,19.477 32.991,19.416ZM32.63,20.638C33.204,20.915 33.298,21.733 33.643,22.267C33.948,21.576 33.392,20.723 33.209,20.068C33.238,20.712 32.851,20.151 32.63,20.638L32.63,20.638ZM14.983,22.105C14.983,22.214 14.983,22.322 14.983,22.43C15.257,22.44 15.372,22.271 15.417,22.023C15.239,22.012 15.068,22.011 14.983,22.105ZM14.549,27.075C14.708,27.21 14.879,27.623 14.766,27.808C15.142,27.963 15.276,28.135 15.706,27.972C16.735,27.58 16.351,26.725 15.489,26.261C15.489,26.179 15.489,26.098 15.489,26.016C14.805,25.979 15.124,26.901 14.911,27.075C14.943,26.941 14.517,26.941 14.549,27.075L14.549,27.075ZM14.983,35.792C15.096,35.785 15.233,35.803 15.2,35.629C15.152,35.629 15.104,35.629 15.055,35.629C15.055,35.711 14.997,35.727 14.983,35.792L14.983,35.792ZM32.919,36.444C32.733,36.405 32.397,36.116 32.268,36.281C32.421,36.36 32.798,36.601 32.919,36.444ZM37.404,55.102C37.453,55.102 37.5,55.102 37.549,55.102C37.549,55.046 37.549,54.993 37.549,54.938C37.5,54.938 37.453,54.938 37.404,54.938C37.404,54.993 37.404,55.046 37.404,55.102ZM37.549,55.59C37.304,55.343 37.329,55.891 37.549,55.59ZM37.549,55.916C37.455,55.91 37.448,55.811 37.331,55.834C37.218,56.035 37.577,56.074 37.549,55.916ZM37.404,56.324C37.453,56.324 37.5,56.324 37.549,56.324C37.549,56.268 37.549,56.215 37.549,56.16C37.5,56.16 37.453,56.16 37.404,56.16C37.404,56.215 37.404,56.268 37.404,56.324Z"/>
                    <path id="path1562" d="M23.228,18.194C22.934,18.039 23.541,18.201 23.517,18.194C24.274,18.391 25.122,19.052 26.048,19.172C26.294,19.232 26.168,18.871 26.337,18.847C26.978,19.065 27.391,18.652 28.073,18.683C27.634,18.84 27.187,18.989 26.844,19.254C26.458,20.888 26.932,22.475 28.218,22.838C26.615,23.348 26.677,19.222 25.036,20.313C24.746,20.506 24.4,21.452 24.023,21.861C23.838,22.063 23.707,22.163 23.373,22.349C23.295,22.054 23.595,22.162 23.734,22.024C24.234,21.531 24.811,20.124 24.674,19.336C24.542,18.572 23.827,18.571 23.228,18.194L23.228,18.194ZM25.253,19.824C25.596,19.729 25.845,20.013 26.048,19.824C26.043,19.448 25.267,19.501 25.253,19.824Z"/>
                    <path id="path1564" d="M42.538,40.111C42.443,40.502 42.011,40.188 41.67,40.192C41.101,40.198 40.401,40.449 40.223,40.355C41.066,39.986 41.554,40.046 42.538,40.111L42.538,40.111Z"/>
                </g>
            </g>
            <ellipse id="use158622" cx="25.267" cy="25.502" rx="20.702" ry="20.938" style="fill:none;stroke:black;stroke-width:0.91px;"/>
        </g>
    </g>
</svg>
